# xmcd
#
# Track frame offsets: 
#        150
#        12400
#        24885
#        37130
#        50135
#        60045
#        71797
#        81470
#        93837
#        104867
#        117165
#        129125
#
# Disc length: 1885 seconds
#
# Revision: 0
# Processed by: cddbd v1.4b42PL1 Copyright (c) Steve Scherf et al.
# Submitted via: ExactAudioCopy v0.90a11
#
DISCID=9e075b0c
DTITLE=Wilburn Brothers - The Wonderful Wilburn Brothers
DYEAR=1900
DGENRE=
TTITLE0=Heart Please Be Still
TTITLE1=Are You Lonely Too
TTITLE2=Way Down Under Blues
TTITLE3=Put Me In Your Pocket
TTITLE4=Down In Dixe Where They Say You All
TTITLE5=Bugle Call From Heaven
TTITLE6=Goose Pimples
TTITLE7=Give A Little Take A Little
TTITLE8=Anticipation Blues
TTITLE9=Because You Care
TTITLE10=The Long Gone Lonesome Blues
TTITLE11=Will You Be Ready To Wear A Golden Crown
EXTD=
EXTT0=
EXTT1=
EXTT2=
EXTT3=
EXTT4=
EXTT5=
EXTT6=
EXTT7=
EXTT8=
EXTT9=
EXTT10=
EXTT11=
PLAYORDER=
